.
 
http://www.scenetime.com    -  Hottest private tracker on the net. !!!

New release on http://www.scenetime.com

        Seed back for speed


...................................NFO:.................................................








































          
          
              
              
                    
                    
                    
                    

Chop.2011.HDRiP.XviD.AC3-SiC

Poster:
[IMG]http://img692.imageshack.us/img692/7553/chopcover.jpg[/IMG]

IMDB Link:
http://www.imdb.com/title/tt1544578/

Description:
Lance Reed is forced by a psychotic stranger to confront his duplicitous past. Seeking retribution for a crime, the man forces Lance to reveal his inner most secrets by systematically removing his limbs. 

MediaInfo:
General
Complete name                    : Chop.2011.HDRiP.XviD.AC3-SiC.avi
Format                           : AVI
Format/Info                      : Audio Video Interleave
File size                        : 1.35 GiB
Duration                         : 1h 22mn
Overall bit rate                 : 2 325 Kbps

Video
ID                               : 0
Format                           : MPEG-4 Visual
Format profile                   : Advanced Simple@L5
Format settings, BVOP            : 2
Format settings, QPel            : No
Format settings, GMC             : No warppoints
Format settings, Matrix          : Default (H.263)
Muxing mode                      : Packed bitstream
Codec ID                         : XVID
Codec ID/Hint                    : XviD
Duration                         : 1h 22mn
Bit rate                         : 2 125 Kbps
Width                            : 720 pixels
Height                           : 400 pixels
Display aspect ratio             : 16:9
Frame rate                       : 23.976 fps
Color space                      : YUV
Chroma subsampling               : 4:2:0
Bit depth                        : 8 bits
Scan type                        : Progressive
Compression mode                 : Lossy
Bits/(Pixel*Frame)               : 0.308
Stream size                      : 1.23 GiB (91%)
Writing library                  : XviD 1.1.2 (UTC 2006-11-01)

Audio
ID                               : 1
Format                           : AC-3
Format/Info                      : Audio Coding 3
Mode extension                   : CM (complete main)
Codec ID                         : 2000
Duration                         : 1h 22mn
Bit rate mode                    : Constant
Bit rate                         : 192 Kbps
Channel(s)                       : 2 channels
Channel positions                : Front: L R
Sampling rate                    : 48.0 KHz
Bit depth                        : 16 bits
Compression mode                 : Lossy
Stream size                      : 114 MiB (8%)
Alignment                        : Aligned on interleaves
Interleave, duration             : 64 ms (1.53 video frames)
Interleave, preload duration     : 192 ms
Title                            : chop

Screenshots:
[IMG]http://img830.imageshack.us/img830/2451/scrncp00006.png[/IMG]
[IMG]http://img214.imageshack.us/img214/6494/scrncp00007.png[/IMG]
[IMG]http://img194.imageshack.us/img194/2986/scrncp00018.png[/IMG]
[IMG]http://img59.imageshack.us/img59/6585/scrncp00020.png[/IMG]
[IMG]http://img440.imageshack.us/img440/6504/scrncp00021.png[/IMG]

Note : Encoded from a 720p HD wmv Digital VOD Rental. Even though there are dvdrips out of this film, we thought we would put out our own SD XviD release, but from our own 720p HD source since its not available on bluray. Just another option from another new source. Did the usual stuff, turned out nice.

Source: 720p wmv Digital VOD Rental / Our Own

Enjoy!

Respects to T00NG0D, ELEKTRI4KA, PA, YeFsTe, Box, MrRep and everyone in the struggle...